HIERARCHY
ROOT Hips
{
	OFFSET 0.000000 0.000000 0.000000 
	CHANNELS 6 Xposition Yposition Zposition Zrotation Yrotation Xrotation
	JOINT LeftUpLeg
	{
		OFFSET 1.363060 -1.794630 0.839290 
		CHANNELS 3 Zrotation Yrotation Xrotation
		JOINT LeftLeg
		{
			OFFSET 2.448110 -6.726130 0.000000 
			CHANNELS 3 Zrotation Yrotation Xrotation
			JOINT LeftFoot
			{
				OFFSET 2.562200 -7.039590 0.000000 
				CHANNELS 3 Zrotation Yrotation Xrotation
				JOINT LeftToeBase
				{
					OFFSET 0.157640 -0.433110 2.322550 
					CHANNELS 3 Zrotation Yrotation Xrotation
					End Site
					{
						OFFSET 0.000000 0.000000 0.000000 
					}
				}
			}
		}
	}
	JOINT RightUpLeg
	{
		OFFSET -1.305520 -1.794630 0.839290 
		CHANNELS 3 Zrotation Yrotation Xrotation
		JOINT RightLeg
		{
			OFFSET -2.542530 -6.985550 0.000000 
			CHANNELS 3 Zrotation Yrotation Xrotation
			JOINT RightFoot
			{
				OFFSET -2.568260 -7.056230 0.000000 
				CHANNELS 3 Zrotation Yrotation Xrotation
				JOINT RightToeBase
				{
					OFFSET -0.164730 -0.452590 2.363150 
					CHANNELS 3 Zrotation Yrotation Xrotation
					End Site
					{
						OFFSET 0.000000 0.000000 0.000000 
					}
				}
			}
		}
	}
	JOINT Spine
	{
		OFFSET 0.028270 2.035590 -0.193380 
		CHANNELS 3 Zrotation Yrotation Xrotation
		JOINT Spine1
		{
			OFFSET 0.056720 2.048850 -0.042750 
			CHANNELS 3 Zrotation Yrotation Xrotation
			JOINT Neck1
			{
				OFFSET -0.054170 1.746240 0.172020 
				CHANNELS 3 Zrotation Yrotation Xrotation
				JOINT Head
				{
					OFFSET 0.104070 1.761360 -0.123970 
					CHANNELS 3 Zrotation Yrotation Xrotation
					End Site
					{
						OFFSET 0.000000 0.000000 0.000000 
					}
				}
			}
			JOINT LeftArm
			{
				OFFSET 3.362410 1.200890 -0.311210 
				CHANNELS 3 Zrotation Yrotation Xrotation
				JOINT LeftForeArm
				{
					OFFSET 4.983000 -0.000000 -0.000000 
					CHANNELS 3 Zrotation Yrotation Xrotation
					JOINT LeftHand
					{
						OFFSET 3.483560 -0.000000 -0.000000 
						CHANNELS 3 Zrotation Yrotation Xrotation
						JOINT LeftHandIndex1
						{
							OFFSET 0.715260 -0.000000 -0.000000 
							CHANNELS 3 Zrotation Yrotation Xrotation
							End Site
							{
								OFFSET 0.000000 0.000000 0.000000 
							}
						}
					}
				}
			}
			JOINT RightArm
			{
				OFFSET -3.136600 1.374050 -0.404650 
				CHANNELS 3 Zrotation Yrotation Xrotation
				JOINT RightForeArm
				{
					OFFSET -5.241900 -0.000000 -0.000000 
					CHANNELS 3 Zrotation Yrotation Xrotation
					JOINT RightHand
					{
						OFFSET -3.444170 -0.000000 -0.000000 
						CHANNELS 3 Zrotation Yrotation Xrotation
						JOINT RightHandIndex1
						{
							OFFSET -0.622530 -0.000000 -0.000000 
							CHANNELS 3 Zrotation Yrotation Xrotation
							End Site
							{
								OFFSET 0.000000 0.000000 0.000000 
							}
						}
					}
				}
			}
		}
	}
}
MOTION
Frames: 15
Frame Time: 0.041667
6.908281 17.007250 1.437030 176.589563 -60.353831 -175.332756 -6.139159 21.488718 -26.869127 8.080951 16.658865 52.545003 -1.754750 7.993813 -8.531136 0.563800 -4.809300 -13.365400 1.644152 8.085536 -24.130522 -4.637036 -15.768056 43.984899 -1.636906 4.264109 0.043457 -0.307500 3.565100 -9.856100 0.132031 -4.803574 -0.914936 4.481020 -2.729533 -0.340820 13.864166 -17.515874 3.904029 6.288200 -7.616300 13.220200 -63.052148 -9.383162 30.844302 30.520723 -41.726132 -16.221163 -1.172862 -0.366234 -21.903112 -7.125000 0.000000 0.000000 30.534501 43.852150 26.509476 -138.624169 36.641394 -106.831356 -0.773905 0.832002 -60.082519 7.125000 0.000000 0.000000 
6.915128 17.007582 1.434159 176.338864 -59.823855 -175.118215 -6.339319 21.726911 -26.883883 8.069838 16.654948 52.495748 -1.962443 8.461386 -8.329632 0.505100 -4.555800 -12.645800 1.546851 8.185786 -24.337360 -4.638095 -15.781358 44.003567 -1.714032 4.641326 0.260695 -0.304400 3.547100 -9.806000 0.168623 -5.054389 -0.942702 4.754598 -2.861107 -0.443726 13.994709 -17.461753 3.797364 6.415500 -7.611300 13.117300 -63.303475 -9.218222 30.682172 30.614447 -41.805496 -16.302748 -1.167254 -0.373943 -21.585601 -7.125000 0.000000 0.000000 30.545550 43.794305 26.634685 -138.801733 36.522023 -106.937151 -0.768590 0.827332 -60.200633 7.125000 0.000000 0.000000 
6.901986 17.007471 1.433275 176.374381 -59.050826 -175.338470 -6.379851 22.036302 -26.629030 8.074838 16.661066 52.509173 -2.029509 8.645025 -8.544500 0.425700 -4.187400 -11.604500 1.591847 8.486532 -24.312087 -4.615739 -15.794951 43.981190 -1.793392 5.041977 0.506262 -0.311200 3.586400 -9.915800 0.314901 -5.494477 -0.986575 5.747360 -3.140968 -0.536377 13.983975 -16.822865 3.882220 6.725800 -7.384600 13.115000 -64.372495 -8.820875 29.726706 30.592092 -41.835488 -16.346675 -1.167563 -0.341184 -21.197319 -7.125000 0.000000 0.000000 30.693698 44.190830 27.919468 -139.117868 36.271158 -107.033430 -0.760882 0.802045 -60.436460 7.125000 0.000000 0.000000 
6.902759 16.999188 1.429520 176.620953 -58.576502 -175.362319 -6.320399 22.200712 -26.722398 8.095166 16.634425 52.538073 -2.040257 8.703166 -8.917110 0.430600 -4.211100 -11.671300 1.682602 8.757942 -24.659779 -4.592904 -15.861449 43.993649 -1.828203 5.233838 0.694356 -0.305300 3.552600 -9.821200 0.182353 -5.165712 -0.927559 4.639909 -2.924598 -0.341015 14.135868 -17.675263 3.618055 6.470300 -7.711100 13.020300 -63.321588 -9.328408 31.150642 30.507210 -41.759015 -16.186216 -1.176605 -0.339796 -21.360606 -7.125000 0.000000 0.000000 30.488351 43.456986 26.275071 -139.117227 36.305897 -107.182815 -0.757815 0.815635 -59.892341 7.125000 0.000000 0.000000 
6.899556 16.993998 1.422784 177.043945 -58.080762 -175.675379 -6.124848 22.399468 -26.723825 8.121951 16.602091 52.550560 -2.041080 8.726999 -9.145030 0.441500 -4.263600 -11.819500 1.913807 9.078882 -24.856383 -4.566834 -15.922816 44.005152 -1.851364 5.367561 0.783534 -0.298100 3.510900 -9.704600 0.193935 -5.263687 -0.910728 4.477755 -2.981412 -0.183237 14.143255 -17.850107 3.601240 6.374200 -7.764200 13.041300 -63.224228 -9.455735 31.308153 30.475936 -41.739975 -16.154283 -1.170526 -0.311305 -21.408070 -7.125000 0.000000 0.000000 30.553649 43.593777 26.198714 -139.115779 36.268997 -107.200354 -0.758545 0.800952 -59.608967 7.125000 0.000000 0.000000 
6.899888 16.995544 1.415163 177.318736 -57.749466 -175.897394 -6.008772 22.590981 -26.720714 8.141616 16.577060 52.534652 -2.079468 8.795411 -8.929996 0.398600 -4.053600 -11.227400 2.108318 9.202254 -24.996364 -4.559229 -15.968422 44.045469 -1.873278 5.492215 0.815689 -0.323200 3.654200 -10.105900 0.205148 -5.239676 -0.889830 4.316831 -2.978076 -0.045648 14.036036 -18.102931 3.633850 6.086900 -7.828500 13.086700 -63.069877 -9.822142 31.619387 30.452838 -41.698104 -16.096752 -1.136338 -0.299601 -21.054873 -7.125000 0.000000 0.000000 30.254757 43.416380 25.591750 -139.157738 36.352609 -107.233423 -0.753306 0.820514 -59.500044 7.125000 0.000000 0.000000 
6.900881 16.998526 1.407101 177.291744 -57.519870 -175.836998 -6.027132 22.671643 -26.699006 8.124962 16.558314 52.472009 -2.138759 8.941903 -9.010165 0.406900 -4.095300 -11.344900 2.133111 9.259461 -25.113745 -4.554910 -15.981887 44.050675 -1.892830 5.597529 0.874930 -0.333900 3.713300 -10.271600 0.235340 -5.425425 -0.927451 4.376720 -3.066444 -0.105831 13.912350 -18.024895 3.776061 6.000700 -7.792900 13.155100 -63.265285 -9.778593 31.518052 30.500787 -41.724841 -16.126023 -1.103527 -0.315896 -20.448729 -7.125000 0.000000 0.000000 30.138650 43.287964 25.592770 -139.389988 36.178080 -107.384688 -0.752281 0.822197 -59.359667 7.125000 0.000000 0.000000 
6.898341 17.001728 1.399591 177.118656 -57.290597 -175.659411 -6.106590 22.686521 -26.634409 8.082253 16.542262 52.367941 -2.255522 9.249264 -9.347188 0.456800 -4.335700 -12.023200 2.055406 9.381689 -25.159402 -4.541971 -15.980320 44.012181 -1.910553 5.685725 0.950705 -0.313600 3.600000 -9.954000 0.250193 -5.586622 -0.949989 4.416504 -3.141003 -0.140969 13.913272 -17.951672 3.842886 6.039300 -7.767700 13.188400 -63.434517 -9.688308 31.701304 30.595002 -41.806293 -16.181525 -1.115980 -0.295682 -20.492546 -7.125000 0.000000 0.000000 30.055575 43.198089 25.618868 -139.501881 36.111323 -107.451018 -0.746336 0.817611 -59.481658 7.125000 0.000000 0.000000 
6.890279 17.009570 1.391861 176.901371 -57.108301 -175.563255 -6.220514 22.752520 -26.445956 8.033802 16.531694 52.232513 -2.401058 9.588011 -9.293647 0.439700 -4.255000 -11.795200 1.979042 9.424905 -25.028789 -4.529285 -15.965953 43.963066 -1.937748 5.814894 0.992791 -0.301300 3.529500 -9.756600 0.242196 -5.600716 -0.929207 4.323273 -3.144295 -0.118238 13.997715 -18.043972 3.805401 6.090600 -7.808800 13.195300 -63.496622 -9.841468 32.298754 30.578583 -41.814085 -16.121526 -1.141350 -0.232562 -20.500540 -7.125000 0.000000 0.000000 29.758310 42.903263 25.232188 -139.667029 36.097136 -107.546665 -0.751692 0.850912 -59.601377 7.125000 0.000000 0.000000 
6.878352 17.017300 1.381369 176.738005 -56.957736 -175.556120 -6.295382 22.875726 -26.192966 7.986112 16.516966 52.092963 -2.444934 9.687437 -9.206047 0.410600 -4.113500 -11.396100 1.948184 9.438820 -24.832917 -4.521265 -15.954943 43.931281 -1.965969 5.945031 0.961365 -0.295800 3.497000 -9.665600 0.239709 -5.621453 -0.909501 4.238264 -3.156018 -0.070511 14.009605 -17.982238 3.838036 6.139400 -7.783500 13.224600 -63.649853 -10.110085 32.662651 30.430858 -41.712927 -15.965595 -1.144307 -0.196192 -20.193968 -7.125000 0.000000 0.000000 29.537339 42.642002 24.917779 -139.747322 36.128503 -107.589548 -0.763321 0.883047 -59.753085 7.125000 0.000000 0.000000 
6.875260 17.019067 1.369883 176.590147 -56.933862 -175.422641 -6.339677 22.896892 -26.130918 7.931665 16.486504 51.928742 -2.429200 9.648835 -9.188678 0.405500 -4.088100 -11.324600 1.898300 9.439844 -24.823594 -4.526920 -15.948930 43.936488 -1.973264 5.974747 0.923653 -0.280700 3.407500 -9.415400 0.292280 -5.816848 -0.973663 4.460931 -3.257448 -0.174559 13.767165 -17.518262 4.060151 6.035000 -7.578900 13.236300 -63.941896 -10.060833 32.619016 30.341470 -41.657275 -15.889565 -1.142003 -0.186679 -20.197570 -7.125000 0.000000 0.000000 29.657346 42.696373 25.434813 -139.825191 36.006645 -107.626848 -0.775484 0.855987 -59.756565 7.125000 0.000000 0.000000 
6.883211 17.022712 1.358066 176.170695 -57.043216 -174.980789 -6.493386 22.785633 -26.235904 7.864405 16.460424 51.746168 -2.428782 9.631338 -9.054941 0.419200 -4.156000 -11.515900 1.706950 9.374333 -24.943437 -4.558602 -15.932038 43.990406 -1.965205 5.932059 0.927065 -0.272500 3.358000 -9.277100 0.406683 -6.100936 -1.134878 5.137365 -3.402116 -0.552989 13.262492 -16.717012 4.457418 5.735800 -7.226300 13.263200 -64.559698 -9.611443 32.383573 30.395181 -41.722318 -15.937103 -1.126817 -0.167806 -20.173702 -7.125000 0.000000 0.000000 29.868036 42.848899 26.635209 -139.928966 35.827125 -107.645688 -0.780456 0.795388 -59.878447 7.125000 0.000000 0.000000 
6.886745 17.029669 1.343599 175.680315 -57.069531 -174.503051 -6.698113 22.777437 -26.270536 7.803484 16.446444 51.594365 -2.403230 9.558233 -8.926385 0.429400 -4.205300 -11.655000 1.484491 9.364067 -24.998304 -4.594327 -15.935985 44.071392 -1.957342 5.887253 0.914895 -0.263200 3.300400 -9.116200 0.439417 -6.156232 -1.169391 5.261242 -3.444244 -0.411392 12.830494 -15.980992 4.801036 5.486700 -6.875600 13.338300 -64.886096 -9.731046 32.463417 30.354270 -41.696044 -15.880613 -1.110188 -0.140567 -19.932251 -7.125000 0.000000 0.000000 29.807256 42.905635 27.017806 -139.873305 35.913420 -107.562529 -0.767420 0.790492 -59.886649 7.125000 0.000000 0.000000 
6.886966 17.032099 1.327806 175.405332 -57.097593 -174.233396 -6.809500 22.832191 -26.183526 7.757444 16.434941 51.475710 -2.334910 9.390961 -8.835206 0.413100 -4.125900 -11.431000 1.361284 9.369623 -24.968121 -4.622380 -15.962428 44.158497 -1.960335 5.891984 0.846594 -0.241700 3.163500 -8.734200 0.386835 -6.081332 -1.066442 4.670293 -3.435610 0.337679 12.445302 -15.166861 5.133929 5.240000 -6.436800 13.450300 -64.578428 -10.467807 32.791334 30.160086 -41.521478 -15.694004 -1.100340 -0.126135 -19.746488 -7.125000 0.000000 0.000000 29.797091 43.265682 26.844037 -139.498210 36.242191 -107.297083 -0.751443 0.808445 -59.704348 7.125000 0.000000 0.000000 
6.893372 17.031989 1.313670 175.226602 -57.217634 -174.096664 -6.835827 22.838067 -26.093289 7.719139 16.415450 51.362962 -2.242780 9.161728 -8.688153 0.383200 -3.975200 -11.006800 1.309699 9.332356 -24.930496 -4.648379 -15.978600 44.237051 -1.963796 5.902251 0.766987 -0.239300 3.148400 -8.692300 0.387137 -6.063350 -1.062370 4.332623 -3.437648 0.695602 11.790237 -13.793247 5.639733 4.814800 -5.762100 13.552000 -64.451049 -10.780503 33.012655 29.959191 -41.360135 -15.515694 -1.077460 -0.111815 -19.588121 -7.125000 0.000000 0.000000 30.101025 43.900457 27.550863 -138.963001 36.541120 -106.905943 -0.755064 0.805028 -59.560340 7.125000 0.000000 0.000000 
